# xmcd
#
# Track frame offsets:
#	150
#	11490
#	23862
#	35455
#	47860
#	61785
#	73505
#	84663
#	98429
#	112932
#	126401
#	135681
#	146250
#	155754
#
# Disc length: 2221 seconds
#
# Revision: 1
# Processed by: cddbd v1.5.2PL0 Copyright (c) Steve Scherf et al.
# Submitted via: audiograbber 1.83.01
#
DISCID=b508ab0e
DTITLE=Sam Cooke - Bonus Tracks
DYEAR=1900
DGENRE=
TTITLE0=Jesus Gave Me Water
TTITLE1=Peace In The Valley
TTITLE2=I'm Gonna Build Right On That Shore
TTITLE3=Just Another Day
TTITLE4=He's My Friend 'Til The End
TTITLE5=Jesus, I'll Never Forget
TTITLE6=Any Day Now
TTITLE7=Nearer To Thee
TTITLE8=One More River
TTITLE9=The Last Mile Of The Way
TTITLE10=Touch The Hem Of His Garment
TTITLE11=He's So Wonderful
TTITLE12=Jesus, Wash Away My Troubles
TTITLE13=Farther Along
EXTD=
EXTT0=
EXTT1=
EXTT2=
EXTT3=
EXTT4=
EXTT5=
EXTT6=
EXTT7=
EXTT8=
EXTT9=
EXTT10=
EXTT11=
EXTT12=
EXTT13=
PLAYORDER=
